<svg xmlns="http://www.w3.org/2000/svg" viewBox="0 0 1920 1080" preserveAspectRatio="xMidYMid slice">
  <defs>
    <linearGradient id="dawn" x1="0" y1="0" x2="0" y2="1">
      <stop offset="0%" stop-color="#0d2f4f"/>
      <stop offset="45%" stop-color="#1f5f7f"/>
      <stop offset="80%" stop-color="#7ab17f"/>
      <stop offset="100%" stop-color="#d4c991"/>
    </linearGradient>
    <radialGradient id="light" cx="0.3" cy="0.18" r="0.24">
      <stop offset="0%" stop-color="#fff1bf" stop-opacity="0.85"/>
      <stop offset="100%" stop-color="#fff1bf" stop-opacity="0"/>
    </radialGradient>
    <linearGradient id="mountain" x1="0" y1="0" x2="1" y2="1">
      <stop offset="0%" stop-color="#2b566c"/>
      <stop offset="100%" stop-color="#193544"/>
    </linearGradient>
  </defs>

  <rect width="1920" height="1080" fill="url(#dawn)"/>
  <rect width="1920" height="1080" fill="url(#light)"/>

  <path d="M0 730 L210 580 L430 700 L680 530 L920 690 L1180 520 L1450 700 L1710 560 L1920 660 L1920 1080 L0 1080 Z" fill="url(#mountain)"/>

  <path d="M0 860 C220 820, 420 900, 640 860 C860 820, 1060 900, 1280 860 C1500 820, 1700 900, 1920 860 L1920 1080 L0 1080 Z" fill="#2e6f63" opacity="0.85"/>

  <g fill="#2f6b44" opacity="0.95">
    <path d="M110 910 l45 -115 l45 115 z"/>
    <path d="M250 930 l58 -145 l58 145 z"/>
    <path d="M430 915 l50 -130 l50 130 z"/>
    <path d="M610 935 l63 -158 l63 158 z"/>
    <path d="M840 920 l55 -142 l55 142 z"/>
    <path d="M1050 935 l60 -152 l60 152 z"/>
    <path d="M1290 922 l56 -142 l56 142 z"/>
    <path d="M1510 938 l64 -160 l64 160 z"/>
    <path d="M1760 925 l52 -132 l52 132 z"/>
  </g>
</svg>
