<svg xmlns="http://www.w3.org/2000/svg" viewBox="0 0 1920 1080" preserveAspectRatio="xMidYMid slice">
  <defs>
    <linearGradient id="sky" x1="0" y1="0" x2="0" y2="1">
      <stop offset="0%" stop-color="#0c1b33"/>
      <stop offset="60%" stop-color="#1b3a5b"/>
      <stop offset="100%" stop-color="#274d46"/>
    </linearGradient>
    <radialGradient id="moonGlow" cx="0.78" cy="0.22" r="0.2">
      <stop offset="0%" stop-color="#d7f8ff" stop-opacity="0.75"/>
      <stop offset="100%" stop-color="#d7f8ff" stop-opacity="0"/>
    </radialGradient>
    <linearGradient id="ridge1" x1="0" y1="0" x2="1" y2="1">
      <stop offset="0%" stop-color="#1b3f49"/>
      <stop offset="100%" stop-color="#0d232a"/>
    </linearGradient>
    <linearGradient id="ridge2" x1="0" y1="0" x2="1" y2="1">
      <stop offset="0%" stop-color="#2a6a63"/>
      <stop offset="100%" stop-color="#163c3a"/>
    </linearGradient>
  </defs>

  <rect width="1920" height="1080" fill="url(#sky)"/>
  <rect width="1920" height="1080" fill="url(#moonGlow)"/>

  <g fill="#ffffff" opacity="0.25">
    <circle cx="250" cy="160" r="1.8"/>
    <circle cx="420" cy="100" r="1.2"/>
    <circle cx="580" cy="180" r="1.5"/>
    <circle cx="860" cy="130" r="1.6"/>
    <circle cx="1060" cy="180" r="1.3"/>
    <circle cx="1320" cy="120" r="1.7"/>
    <circle cx="1540" cy="170" r="1.4"/>
    <circle cx="1720" cy="100" r="1.3"/>
  </g>

  <path d="M0 700 L250 520 L430 640 L700 460 L910 610 L1160 430 L1460 620 L1740 500 L1920 610 L1920 1080 L0 1080 Z" fill="url(#ridge1)"/>
  <path d="M0 820 L190 690 L420 790 L690 640 L930 770 L1190 630 L1450 770 L1700 680 L1920 760 L1920 1080 L0 1080 Z" fill="url(#ridge2)"/>

  <g fill="#1f5b48" opacity="0.95">
    <path d="M140 860 l42 -110 l42 110 z"/>
    <path d="M220 900 l52 -130 l52 130 z"/>
    <path d="M330 880 l44 -120 l44 120 z"/>
    <path d="M470 910 l58 -150 l58 150 z"/>
    <path d="M620 900 l54 -135 l54 135 z"/>
    <path d="M760 910 l62 -160 l62 160 z"/>
    <path d="M920 890 l56 -140 l56 140 z"/>
    <path d="M1080 915 l60 -150 l60 150 z"/>
    <path d="M1260 900 l55 -138 l55 138 z"/>
    <path d="M1420 910 l63 -160 l63 160 z"/>
    <path d="M1600 900 l50 -128 l50 128 z"/>
    <path d="M1730 895 l48 -122 l48 122 z"/>
  </g>
</svg>
